HIERARCHY
ROOT Hips
{
 OFFSET 0.000000 0.000000 0.000000
 CHANNELS 6 Xposition Yposition Zposition Yrotation Xrotation Zrotation
 JOINT Chest
 {
  OFFSET 0.000000 9.585900 0.002600
  CHANNELS 3 Yrotation Xrotation Zrotation
  JOINT Chest2
  {
   OFFSET 0.000000 9.601200 -0.005300
   CHANNELS 3 Yrotation Xrotation Zrotation
   JOINT Chest3
   {
    OFFSET 0.000000 9.561800 0.000000
    CHANNELS 3 Yrotation Xrotation Zrotation
    JOINT Chest4
    {
     OFFSET 0.000000 9.552100 0.000000
     CHANNELS 3 Yrotation Xrotation Zrotation
     JOINT Neck
     {
      OFFSET 0.000000 14.453000 0.000000
      CHANNELS 3 Yrotation Xrotation Zrotation
      JOINT Head
      {
       OFFSET 0.000000 8.936500 -0.011300
       CHANNELS 3 Yrotation Xrotation Zrotation
       End Site
       {
        OFFSET 0.000000 17.073600 -0.006000
       }
      }
     }
     JOINT RightCollar
     {
      OFFSET -2.921100 9.558500 0.000000
      CHANNELS 3 Yrotation Xrotation Zrotation
      JOINT RightShoulder
      {
       OFFSET -13.519700 0.000000 0.000000
       CHANNELS 3 Yrotation Xrotation Zrotation
       JOINT RightElbow
       {
        OFFSET 0.000000 -29.696600 0.000000
        CHANNELS 3 Yrotation Xrotation Zrotation
        JOINT RightWrist
        {
         OFFSET 0.000000 -24.004700 0.000000
         CHANNELS 3 Yrotation Xrotation Zrotation
         End Site
         {
          OFFSET 0.000000 -17.728500 0.000000
         }
        }
       }
      }
     }
     JOINT LeftCollar
     {
      OFFSET 2.921100 9.558500 0.000000
      CHANNELS 3 Yrotation Xrotation Zrotation
      JOINT LeftShoulder
      {
       OFFSET 13.519700 0.000000 0.000000
       CHANNELS 3 Yrotation Xrotation Zrotation
       JOINT LeftElbow
       {
        OFFSET 0.000000 -29.696600 0.000000
        CHANNELS 3 Yrotation Xrotation Zrotation
        JOINT LeftWrist
        {
         OFFSET 0.000000 -24.004700 0.000000
         CHANNELS 3 Yrotation Xrotation Zrotation
         End Site
         {
          OFFSET 0.000000 -17.728500 0.000000
         }
        }
       }
      }
     }
    }
   }
  }
 }
 JOINT RightHip
 {
  OFFSET -7.771700 -0.012900 -0.001300
  CHANNELS 3 Yrotation Xrotation Zrotation
  JOINT RightKnee
  {
   OFFSET 0.000000 -40.869800 0.001200
   CHANNELS 3 Yrotation Xrotation Zrotation
   JOINT RightAnkle
   {
    OFFSET 0.000000 -39.717900 0.002100
    CHANNELS 3 Yrotation Xrotation Zrotation
    JOINT RightToe
    {
     OFFSET 0.000000 -4.965400 11.033500
     CHANNELS 3 Yrotation Xrotation Zrotation
     End Site
     {
      OFFSET 0.000000 -1.423100 5.872300
     }
    }
   }
  }
 }
 JOINT LeftHip
 {
  OFFSET 7.771700 -0.012900 -0.001300
  CHANNELS 3 Yrotation Xrotation Zrotation
  JOINT LeftKnee
  {
   OFFSET 0.000000 -40.869800 0.001200
   CHANNELS 3 Yrotation Xrotation Zrotation
   JOINT LeftAnkle
   {
    OFFSET 0.000000 -39.717900 0.002100
    CHANNELS 3 Yrotation Xrotation Zrotation
    JOINT LeftToe
    {
     OFFSET 0.000000 -4.965400 11.033500
     CHANNELS 3 Yrotation Xrotation Zrotation
     End Site
     {
      OFFSET 0.000000 -1.423100 5.872300
     }
    }
   }
  }
 }
}
MOTION
Frames: 8
Frame Time: 0.008333
-128.024764 51.764880 -52.973286 174.717673 -21.848281 0.954356 -1.640818 13.921363 0.385521 -0.154598 1.195979 0.096368 -0.259647 2.019081 0.161121 -1.544156 12.564982 0.865678 -1.304719 19.271481 -1.274567 -1.097917 -5.336220 -1.049658 1.218828 16.477934 8.563548 39.193980 -3.057115 -31.489162 78.917778 -70.541404 -106.375511 4.473141 0.175554 -15.289436 0.275617 15.197735 -12.962413 -36.769018 0.076558 29.829887 -58.826846 -69.226939 93.318860 10.548827 0.848671 11.417472 -12.469317 -60.508936 6.952874 -90.611907 82.778835 -98.443354 -3.816262 -9.574593 5.977430 0.157824 -0.752916 0.083696 9.452348 -58.674871 -6.105833 34.674871 85.265096 39.860331 -2.216022 -13.030465 -0.222170 0.186732 0.439959 0.089495
-128.028352 51.763240 -52.972050 174.726417 -21.862797 0.955740 -1.649008 13.926173 0.381097 -0.155506 1.201974 0.096235 -0.259621 2.019075 0.161010 -1.542483 12.554919 0.863688 -1.304223 19.274030 -1.274065 -1.096019 -5.333144 -1.048160 1.212549 16.475849 8.561575 39.156328 -3.036627 -31.475339 79.051460 -70.550726 -106.502493 4.459584 0.158932 -15.292335 0.281401 15.198191 -12.952954 -36.752442 0.073993 29.833647 -58.884818 -69.137284 93.402112 10.529497 0.848738 11.391750 -12.472231 -60.496460 6.943047 -90.624870 82.783008 -98.461101 -3.823767 -9.584735 5.975645 0.168438 -0.735097 0.082954 9.482120 -58.661333 -6.131328 34.633655 85.267143 39.821093 -2.212952 -13.026915 -0.203991 0.173732 0.438845 0.082444
-128.031757 51.761571 -52.970498 174.732681 -21.877323 0.956843 -1.655588 13.937504 0.377260 -0.154162 1.192774 0.095902 -0.259823 2.019050 0.160422 -1.545352 12.539098 0.857640 -1.299489 19.290636 -1.269861 -1.093096 -5.330311 -1.046328 1.207995 16.485228 8.561955 39.131917 -3.012312 -31.458628 79.182193 -70.563620 -106.652725 4.449462 0.146733 -15.271732 0.290411 15.212612 -12.944323 -36.728757 0.074263 29.851869 -58.933294 -69.059791 93.467134 10.518293 0.843492 11.372622 -12.472888 -60.487221 6.935334 -90.662624 82.791516 -98.501751 -3.839919 -9.585709 5.972914 0.178130 -0.731723 0.085741 9.495748 -58.647647 -6.143705 34.620584 85.266754 39.807655 -2.213664 -13.026769 -0.193880 0.167126 0.441071 0.080070
-128.036199 51.760145 -52.969124 174.733772 -21.894417 0.966112 -1.658665 13.938142 0.367941 -0.154283 1.192994 0.095636 -0.259470 2.007061 0.159537 -1.547609 12.550691 0.855266 -1.297054 19.294071 -1.271200 -1.084652 -5.334143 -1.051533 1.203521 16.485262 8.551129 39.080379 -3.001824 -31.444535 79.357899 -70.583573 -106.815975 4.434758 0.137321 -15.249963 0.295948 15.207982 -12.945049 -36.718644 0.087672 29.852044 -58.984878 -68.976725 93.548252 10.516376 0.839046 11.363104 -12.454576 -60.478407 6.908404 -90.700225 82.798639 -98.542435 -3.842729 -9.585671 5.972958 0.176540 -0.729996 0.086476 9.523128 -58.629236 -6.168698 34.604618 85.265841 39.794132 -2.215882 -13.024562 -0.190149 0.166742 0.440401 0.081057
-128.039844 51.758745 -52.967049 174.737179 -21.909645 0.969467 -1.659935 13.921231 0.362246 -0.154607 1.192712 0.095443 -0.261630 2.022903 0.160144 -1.548119 12.549637 0.854040 -1.296017 19.297142 -1.272880 -1.083226 -5.330637 -1.053495 1.191090 16.471493 8.533822 39.058740 -2.990313 -31.420518 79.454334 -70.618507 -106.956045 4.430893 0.119006 -15.181270 0.301584 15.192646 -12.941902 -36.705998 0.109315 29.852543 -59.038323 -68.922700 93.625076 10.519131 0.842364 11.359654 -12.448516 -60.469276 6.894612 -90.714531 82.803548 -98.560080 -3.846713 -9.582696 5.976224 0.175951 -0.730187 0.083374 9.561703 -58.612848 -6.200493 34.559423 85.265561 39.760065 -2.214966 -13.022336 -0.185373 0.166883 0.440708 0.082156
-128.041980 51.757837 -52.965234 174.742998 -21.929563 0.963346 -1.660692 13.925280 0.365753 -0.154844 1.192335 0.095293 -0.265183 2.034872 0.160985 -1.548016 12.535045 0.851856 -1.294341 19.300329 -1.273977 -1.083061 -5.323669 -1.053582 1.187695 16.467431 8.525488 39.027844 -2.985350 -31.410254 79.534438 -70.655632 -107.067393 4.418265 0.099335 -15.121181 0.303134 15.191746 -12.944063 -36.676685 0.115613 29.891872 -59.079888 -68.913439 93.669641 10.540063 0.863677 11.341000 -12.460423 -60.448778 6.905539 -90.694794 82.798052 -98.546421 -3.858768 -9.584806 5.976996 0.192463 -0.726866 0.085722 9.614494 -58.590911 -6.237914 34.446617 85.267264 39.673461 -2.215175 -13.023748 -0.177467 0.164442 0.444947 0.083134
-128.044996 51.756913 -52.962382 174.751558 -21.944505 0.961293 -1.664456 13.924625 0.363601 -0.155149 1.191748 0.095012 -0.265469 2.034279 0.161377 -1.552240 12.531802 0.848130 -1.290715 19.303642 -1.273692 -1.084410 -5.309855 -1.049865 1.190430 16.469630 8.522625 38.999963 -2.984234 -31.402236 79.602760 -70.687623 -107.163062 4.398897 0.085543 -15.075544 0.305651 15.195007 -12.945052 -36.664892 0.124564 29.911355 -59.104360 -68.905057 93.707128 10.543483 0.878140 11.331079 -12.468864 -60.435779 6.905081 -90.651966 82.797351 -98.510301 -3.858460 -9.577457 5.975214 0.194203 -0.728101 0.089300 9.644743 -58.573096 -6.263711 34.359360 85.264114 39.597368 -2.214613 -13.024659 -0.169858 0.160533 0.450525 0.082722
-128.048202 51.755732 -52.957851 174.757840 -21.950596 0.960697 -1.667879 13.915210 0.358125 -0.155334 1.191133 0.094607 -0.263625 2.032894 0.164912 -1.557914 12.529111 0.839707 -1.285673 19.315423 -1.267563 -1.078474 -5.314957 -1.052832 1.193295 16.472467 8.523982 38.989713 -2.978848 -31.388350 79.646207 -70.713723 -107.254864 4.377952 0.071295 -15.029276 0.309638 15.209201 -12.938148 -36.653313 0.119775 29.934784 -59.093108 -68.916628 93.687382 10.530904 0.858189 11.359224 -12.477650 -60.431609 6.907214 -90.587225 82.784762 -98.449539 -3.851688 -9.572197 5.970163 0.198994 -0.725601 0.093882 9.690954 -58.563445 -6.298736 34.260912 85.257140 39.510762 -2.219389 -13.022601 -0.156861 0.157990 0.455909 0.081202
